<svg xmlns="http://www.w3.org/2000/svg" xmlns:xlink="http://www.w3.org/1999/xlink" width="1665" height="1002" viewBox="0 0 1665 1002">
  <defs>
    <clipPath id="clip-path">
      <rect id="Rechteck_2442" data-name="Rechteck 2442" width="1665" height="1002" transform="translate(0 64)" fill="none"/>
    </clipPath>
    <clipPath id="clip-path-2">
      <rect id="Rechteck_2435" data-name="Rechteck 2435" width="1665" height="1065" fill="none"/>
    </clipPath>
    <linearGradient id="linear-gradient" x1="0.5" x2="0.5" y2="1" gradientUnits="objectBoundingBox">
      <stop offset="0" stop-color="#8dc6e8"/>
      <stop offset="1" stop-color="#9cdef8" stop-opacity="0.494"/>
    </linearGradient>
    <clipPath id="clip-path-3">
      <rect id="Rechteck_2441" data-name="Rechteck 2441" width="1665" height="1179" fill="none"/>
    </clipPath>
    <clipPath id="clip-path-4">
      <rect id="Rechteck_2436" data-name="Rechteck 2436" width="873.155" height="472.614" transform="translate(791.845 365.793)" fill="none"/>
    </clipPath>
    <clipPath id="clip-path-5">
      <rect id="Rechteck_2437" data-name="Rechteck 2437" width="676.628" height="299.569" transform="translate(57.665 513.671)" fill="none"/>
    </clipPath>
    <clipPath id="clip-path-6">
      <rect id="Rechteck_2438" data-name="Rechteck 2438" width="47.605" height="11.039" transform="translate(157.298 526.613)" fill="none"/>
    </clipPath>
    <clipPath id="clip-path-7">
      <rect id="Rechteck_2439" data-name="Rechteck 2439" width="154.469" height="145.219" transform="translate(0 435.358)" fill="none"/>
    </clipPath>
    <clipPath id="clip-path-8">
      <rect id="Rechteck_2440" data-name="Rechteck 2440" width="232.851" height="138.709" transform="translate(725.997 677.504)" fill="none"/>
    </clipPath>
  </defs>
  <g id="Gruppe_9925" data-name="Gruppe 9925" transform="translate(0 -64)">
    <g id="Gruppe_9924" data-name="Gruppe 9924" clip-path="url(#clip-path)">
      <g id="Gruppe_9904" data-name="Gruppe 9904">
        <g id="Gruppe_9903" data-name="Gruppe 9903" clip-path="url(#clip-path-2)">
          <rect id="Rechteck_2434" data-name="Rechteck 2434" width="1665" height="1065" transform="translate(0)" fill="url(#linear-gradient)"/>
        </g>
      </g>
      <g id="Gruppe_9923" data-name="Gruppe 9923">
        <g id="Gruppe_9922" data-name="Gruppe 9922" clip-path="url(#clip-path-3)">
          <g id="Gruppe_9907" data-name="Gruppe 9907" opacity="0.5">
            <g id="Gruppe_9906" data-name="Gruppe 9906">
              <g id="Gruppe_9905" data-name="Gruppe 9905" clip-path="url(#clip-path-4)">
                <path id="Pfad_4310" data-name="Pfad 4310" d="M1665,365.793a103.893,103.893,0,0,0-63.017,61.125,42.072,42.072,0,0,0-36.663,30.817,80.391,80.391,0,0,0-41.262,51.781,62.105,62.105,0,0,0-10.624,24.1,74.182,74.182,0,0,0-5.942,6.263,73.68,73.68,0,0,0-46.661,48.983,76.1,76.1,0,0,0-28.67,12.48A75.846,75.846,0,0,0,1298.6,614.659a72.44,72.44,0,0,0-22.239,42.332,57.337,57.337,0,0,0-70.377,32.564,65.815,65.815,0,0,0-55.917-16.783,58.2,58.2,0,0,0-74.412,3.338,69.582,69.582,0,0,0-121.928,65.875,60.6,60.6,0,0,0-40.9,33.8,36.964,36.964,0,0,0-55.586,9.234,50.674,50.674,0,0,0-65.405,31.192,66.744,66.744,0,0,1,3.84,10.857,31.174,31.174,0,0,1,24.189,2.9,47.55,47.55,0,0,1,65.784-12.012,72.32,72.32,0,0,1,90.425-.54,71.481,71.481,0,0,1,16.49-5.941,69.568,69.568,0,0,1,128.15,19.419c1.608-.106,3.225-.179,4.86-.179a72.39,72.39,0,0,1,32.546,7.692,72.182,72.182,0,0,1,31.508-7.191,73.034,73.034,0,0,1,10.784.8,55.753,55.753,0,0,1,72.9-37.5q2.2-.7,4.452-1.268a65.063,65.063,0,0,1,64.363-21.078,67.788,67.788,0,0,1,79.03-20.2,79.946,79.946,0,0,1,32.274-21.112,52.6,52.6,0,0,1,10.536-9.143,71.68,71.68,0,0,1,112.55-45.2,78.23,78.23,0,0,1,47.125-15.7c1.244,0,2.48.036,3.71.093A70.105,70.105,0,0,1,1665,642.2Z" fill="#fff"/>
              </g>
            </g>
          </g>
          <g id="Gruppe_9910" data-name="Gruppe 9910" opacity="0.5">
            <g id="Gruppe_9909" data-name="Gruppe 9909">
              <g id="Gruppe_9908" data-name="Gruppe 9908" clip-path="url(#clip-path-5)">
                <path id="Pfad_4311" data-name="Pfad 4311" d="M60.893,567.321a72.606,72.606,0,0,1,47.242,17.4,80.913,80.913,0,0,1,94.908,33.331,65.593,65.593,0,0,1,12.055,64.9c.053,0,.1,0,.157,0a72.257,72.257,0,0,1,36.865,10.059,74.071,74.071,0,0,1,91.018,13.046A58.749,58.749,0,0,1,402.62,717.2a74.109,74.109,0,0,1,27.233,16.664,75.456,75.456,0,0,1,33.342,8.482,79.548,79.548,0,0,1,146.976,23.815,56.177,56.177,0,0,1,8.294,4.458,57.474,57.474,0,0,1,52.167,42.624,67.272,67.272,0,0,1,59.887-36.614c1.238,0,2.454.091,3.676.157.061-1.286.1-2.578.1-3.879a79.912,79.912,0,0,0-7.446-33.755c-.225-1.815-.5-3.613-.85-5.386a83.69,83.69,0,0,0-79.3-96.983,35.16,35.16,0,0,0-25.93-18.6A84.193,84.193,0,0,0,544.04,552.71,81.348,81.348,0,0,0,434,532.314a35.995,35.995,0,0,0-34.867-7.791,26.732,26.732,0,0,0-37.891-5.24A24.038,24.038,0,0,0,339.583,535.9c-.388-.006-.771-.03-1.161-.03a81.073,81.073,0,0,0-37.565,9.185,68.367,68.367,0,0,0-100.223-7.4,86.16,86.16,0,0,0-31.59-.611A68.372,68.372,0,0,0,57.665,567.466c1.076-.049,2.14-.145,3.228-.145" fill="#fff"/>
              </g>
            </g>
          </g>
          <path id="Pfad_4312" data-name="Pfad 4312" d="M832.677,201.829c-25.788-16.814-63.3,1.756-78.586,24.5,23.284-20.331,57.779-28.2,84.383-9.3,7.262-31.817,32.457-47.048,69.15-49.244-50.175-11.607-72.9,26.492-74.947,34.041" transform="translate(0 64)" fill="#5489af"/>
          <path id="Pfad_4313" data-name="Pfad 4313" d="M891.741,215.968c-14.13-3.628-28.143,10.41-31.549,22.945,7.36-12.665,21.647-21.442,36.465-17-1.577-15.386,7.417-26.054,23.552-32.618-24.287,2.419-28.7,22.975-28.468,26.676" transform="translate(0 64)" fill="#4f809e"/>
          <path id="Pfad_4314" data-name="Pfad 4314" d="M937.889,120.741c-5.873-5.431-16.292-2.308-21.2,2.855,6.848-4.195,16.029-4.71,22.024,1.291,3.246-7.834,10.365-10.639,19.861-9.6-12.349-5.158-19.831,3.612-20.685,5.458" transform="translate(0 64)" fill="#3c728c"/>
          <path id="Pfad_4315" data-name="Pfad 4315" d="M0,573.046A63.5,63.5,0,0,1,48.324,562.2,78.255,78.255,0,0,1,109.3,577.906a86.476,86.476,0,0,1,98.218,36.24,71.174,71.174,0,0,1,14.937,62.99,78.05,78.05,0,0,1,29.682,8.919,79.623,79.623,0,0,1,92.506,13.04,64.237,64.237,0,0,1,60.815,12.626,80.264,80.264,0,0,1,26.665,16.07,80.353,80.353,0,0,1,28.971,6.794A85.1,85.1,0,0,1,615,761.682c1.758.867,3.512,1.837,5.243,2.9a62.837,62.837,0,0,1,51.652,35.5,72.864,72.864,0,0,1,127.654,19.931,36.13,36.13,0,0,1,4.782-.319,36.974,36.974,0,0,1,13.9,2.726,53.1,53.1,0,0,1,67.1-11.81,78.13,78.13,0,0,1,45.874-14.945,77.057,77.057,0,0,1,45.527,14.693,77.266,77.266,0,0,1,12.266-4.32,75.118,75.118,0,0,1,135.969,18.536c.2,0,.4,0,.607,0a77.455,77.455,0,0,1,32.593,7.1,77.282,77.282,0,0,1,31.462-6.6c2.3,0,4.6.1,6.9.306a61.7,61.7,0,0,1,57.733-40.4,61.029,61.029,0,0,1,19.148,3.111c.434-.127.865-.249,1.3-.368a70.582,70.582,0,0,1,65.3-22.249,73.362,73.362,0,0,1,79.727-20.59,85.824,85.824,0,0,1,30.517-19.368,58.5,58.5,0,0,1,8.7-7.68,77.241,77.241,0,0,1,117.493-48.679,83.38,83.38,0,0,1,47.189-14.472c.539,0,1.075.006,1.612.017a75.294,75.294,0,0,1,38.874-18.577l.865-.137V1179H0Z" fill="#fff"/>
          <g id="Gruppe_9915" data-name="Gruppe 9915" opacity="0.2">
            <g id="Gruppe_9914" data-name="Gruppe 9914">
              <g id="Gruppe_9913" data-name="Gruppe 9913" clip-path="url(#clip-path-6)">
                <path id="Pfad_4316" data-name="Pfad 4316" d="M169.044,537.042a86.16,86.16,0,0,1,31.59.611c1.369-1.28,2.8-2.495,4.269-3.66a71.155,71.155,0,0,0-47.6-5.545,68.657,68.657,0,0,1,11.746,8.594" fill="#fff"/>
              </g>
            </g>
          </g>
          <g id="Gruppe_9918" data-name="Gruppe 9918" opacity="0.2">
            <g id="Gruppe_9917" data-name="Gruppe 9917">
              <g id="Gruppe_9916" data-name="Gruppe 9916" clip-path="url(#clip-path-7)">
                <path id="Pfad_4317" data-name="Pfad 4317" d="M78.163,465.566a77.8,77.8,0,0,0-36.956,9.28,39.053,39.053,0,0,0-4.444-3.24A40.2,40.2,0,0,0,0,435.358V580.577a58.146,58.146,0,0,1,48.27-12.145,74.417,74.417,0,0,1,9.4-.966,68.369,68.369,0,0,1,96.8-40.575,78.162,78.162,0,0,0-76.306-61.325" fill="#fff"/>
              </g>
            </g>
          </g>
          <g id="Gruppe_9921" data-name="Gruppe 9921" opacity="0.2">
            <g id="Gruppe_9920" data-name="Gruppe 9920">
              <g id="Gruppe_9919" data-name="Gruppe 9919" clip-path="url(#clip-path-8)">
                <path id="Pfad_4318" data-name="Pfad 4318" d="M734.292,772.9c0,1.3-.037,2.593-.1,3.879a67.275,67.275,0,0,1,57.65,39.43,50.675,50.675,0,0,1,65.406-31.192,36.962,36.962,0,0,1,55.586-9.234,60.594,60.594,0,0,1,40.9-33.8,69.6,69.6,0,0,1,5.116-64.481,41.245,41.245,0,0,0-38.175,33.837,28.465,28.465,0,0,0-5.422,7.574q-1,1.07-1.9,2.224a30.391,30.391,0,0,0-7.6,2.779,32.3,32.3,0,0,0-21.585,8.968,24.593,24.593,0,0,0-29.6,17.057c-.336-.016-.665-.05-1-.05a20.448,20.448,0,0,0-9.64,2.4,25.411,25.411,0,0,0-14.9-2.069,30.317,30.317,0,0,0-14.44-4.461,30.831,30.831,0,0,0-30.776-13.174,34.092,34.092,0,0,0-46.784-5.225A23.229,23.229,0,0,0,726,733.749v.013c.348,1.774.625,3.572.849,5.387a79.879,79.879,0,0,1,7.446,33.755" fill="#fff"/>
              </g>
            </g>
          </g>
        </g>
      </g>
    </g>
  </g>
</svg>
